# xmcd
#
# Track frame offsets:
#	150
#	13952
#	31322
#	53480
#	72202
#	86477
#	98792
#	118060
#	139132
#	153060
#	171390
#	185080
#	200790
#
# Disc length: 2925 seconds
#
# Revision: 3
# Processed by: cddbd v1.5.2PL0 Copyright (c) Steve Scherf et al.
# Submitted via: audiograbber 1.83.01
#
DISCID=b30b6b0d
DTITLE=Steve Earle - Sidetracks
DYEAR=2002
DGENRE=Country
TTITLE0=Some Dreams
TTITLE1=Open Your Window
TTITLE2=Me And The Eagle
TTITLE3=Johnny Too Bad (with The V-roys)
TTITLE4=Dominick St. (with Sharon Shannon)
TTITLE5=Breed
TTITLE6=Time Has Come Today (with Sheryl Crow)
TTITLE7=Ellis Unit One (with The Fairfield Four)
TTITLE8=Creepy Jackalope Eye (with The Supersuckers)
TTITLE9=Willin' (with Tim O'Brien)
TTITLE10=Sara's Angel
TTITLE11=My Uncle
TTITLE12=My Back Pages
EXTD=
EXTT0=
EXTT1=
EXTT2=
EXTT3=
EXTT4=
EXTT5=
EXTT6=
EXTT7=
EXTT8=
EXTT9=
EXTT10=
EXTT11=
EXTT12=
PLAYORDER=
